<svg xmlns="http://www.w3.org/2000/svg" width="1130" height="524" viewBox="0 0 1130 524" fill="none">
  <path d="M1129 296.735V100.013C1129 100.013 1131.59 53.5723 1104.32 28.1578C1077.04 2.74224 1045.6 0.87066 1045.6 0.87066C1045.6 0.87066 1037.74 0.120171 1004.42 0.87066C971.106 1.62115 617.664 17.8628 617.664 17.8628L297.2 33.9283L112.809 43.0025C112.809 43.0025 74.1718 45.5792 61.1102 51.0352C48.0487 56.4913 40.2968 60.5079 29.0888 71.0411C17.8808 81.5733 11.8143 90.4776 11.8143 90.4776C11.8143 90.4776 2.3202 104.573 0.999892 126.093C-0.320421 147.613 0.999892 377.858 0.999892 377.858V433.566C0.999892 433.566 0.272352 469.403 28.7548 497.062C57.2372 524.721 98.5272 523.091 98.5272 523.091H1004.42H1026.13C1026.13 523.091 1124.89 523.355 1129 441.544V296.735Z" fill="#F6F1EE"/>
</svg>