<svg xmlns="http://www.w3.org/2000/svg" width="55" height="56" viewBox="0 0 55 56" fill="none">
  <g filter="url(#filter0_d_1_2145)">
    <circle cx="22.5" cy="23.1484" r="22.5" fill="white"/>
  </g>
  <path d="M12.75 20.1484C12.7499 20.0675 12.7631 19.9871 12.789 19.9104L13.877 16.6484C14.521 14.7067 16.3373 13.3967 18.383 13.3984H26.617C28.6627 13.3967 30.4791 14.7067 31.123 16.6484L32.211 19.9114C32.2368 19.9878 32.25 20.0678 32.25 20.1484C32.2467 21.0875 31.8896 21.9909 31.25 22.6784L31.25 29.1484C31.2478 31.2186 29.5702 32.8962 27.5 32.8984H23.723V29.1484C23.723 28.4581 23.1634 27.8984 22.473 27.8984C21.7826 27.8984 21.223 28.4581 21.223 29.1484V32.8984H17.5C15.4298 32.8962 13.7522 31.2186 13.75 29.1484V22.6794C13.1102 21.9916 12.7531 21.0879 12.75 20.1484ZM29.7 17.1204C29.2586 15.7927 28.0162 14.8973 26.617 14.8984L18.383 14.8984C16.9839 14.8973 15.7414 15.7927 15.3 17.1204L14.253 20.2614C14.2989 21.4611 15.2895 22.4074 16.49 22.3984C17.4888 22.4072 18.3953 21.816 18.79 20.8984C18.8963 20.5978 19.1811 20.3972 19.5 20.3984C19.8195 20.3993 20.1031 20.603 20.206 20.9054C20.6038 21.8162 21.5032 22.4048 22.497 22.4048C23.4908 22.4048 24.3902 21.8162 24.788 20.9054C24.8916 20.6009 25.1783 20.3968 25.5 20.3984C25.8182 20.3981 26.1019 20.5985 26.208 20.8984C26.6027 21.816 27.5092 22.4072 28.508 22.3984C29.7093 22.4085 30.7011 21.4619 30.747 20.2614L29.7 17.1204ZM17.5 31.3984H19.723V29.1484C19.723 27.6297 20.9542 26.3984 22.473 26.3984C23.9918 26.3984 25.223 27.6297 25.223 29.1484L25.223 31.3984H27.5C28.7422 31.3973 29.7489 30.3906 29.75 29.1484V23.6694C29.3529 23.8166 28.9334 23.8941 28.51 23.8984C27.3662 23.892 26.2763 23.4115 25.5 22.5714C24.7299 23.4166 23.6394 23.8983 22.496 23.8983C21.3526 23.8983 20.2621 23.4166 19.492 22.5714C18.7176 23.4095 17.631 23.8898 16.49 23.8984C16.0666 23.8941 15.6471 23.8166 15.25 23.6694V29.1484C15.2511 30.3906 16.2578 31.3973 17.5 31.3984Z" fill="black" stroke="black" stroke-width="0.3"/>
  <defs>
    <filter id="filter0_d_1_2145" x="0" y="0.648438" width="55" height="55" filterUnits="userSpaceOnUse" color-interpolation-filters="sRGB">
      <feFlood flood-opacity="0" result="BackgroundImageFix"/>
      <feColorMatrix in="SourceAlpha" type="matrix" values="0 0 0 0 0 0 0 0 0 0 0 0 0 0 0 0 0 0 127 0" result="hardAlpha"/>
      <feOffset dx="5" dy="5"/>
      <feGaussianBlur stdDeviation="2.5"/>
      <feComposite in2="hardAlpha" operator="out"/>
      <feColorMatrix type="matrix" values="0 0 0 0 0.756863 0 0 0 0 0.756863 0 0 0 0 0.756863 0 0 0 0.160784 0"/>
      <feBlend mode="normal" in2="BackgroundImageFix" result="effect1_dropShadow_1_2145"/>
      <feBlend mode="normal" in="SourceGraphic" in2="effect1_dropShadow_1_2145" result="shape"/>
    </filter>
  </defs>
</svg>