<svg xmlns="http://www.w3.org/2000/svg" width="55" height="56" viewBox="0 0 55 56" fill="none">
  <g filter="url(#filter0_d_1_2140)">
    <circle cx="22.5" cy="23.1484" r="22.5" fill="white"/>
  </g>
  <path d="M15.2101 31.632C14.0028 28.2431 14.0029 20.0535 15.2101 16.6649L14.8592 14.1818C14.8247 13.9379 14.8976 13.691 15.0592 13.5051C15.2207 13.3192 15.4548 13.2124 15.7012 13.2124H29.2985C29.5447 13.2124 29.7789 13.3191 29.9405 13.5051C30.1019 13.691 30.175 13.9377 30.1406 14.1816L29.7903 16.6648C30.9975 20.0534 30.9975 28.2429 29.7903 31.6319L30.1411 34.1152C30.1755 34.3591 30.1025 34.606 29.941 34.7918C29.7795 34.9778 29.5453 35.0845 29.299 35.0845H15.702H15.6998C15.2301 35.0845 14.8493 34.7037 14.8493 34.2341C14.8493 34.1716 14.8561 34.1107 14.8688 34.0521L15.2101 31.632ZM28.3102 30.6867C29.2233 27.5946 29.2233 20.7019 28.3102 17.6101H16.69C15.7767 20.702 15.7767 27.5947 16.69 30.6867H28.3102ZM16.6802 14.9132L16.8211 15.9093H28.1791L28.3196 14.9132H16.6802ZM28.3199 33.3836L28.1792 32.3875H16.8212L16.6807 33.3836H28.3199Z" fill="black" stroke="white" stroke-width="0.2"/>
  <path d="M22.5001 23.1758C23.7793 23.1758 24.8201 24.2165 24.8201 25.4957C24.8201 26.7749 23.7793 27.8156 22.5001 27.8156C21.2209 27.8156 20.1803 26.7749 20.1803 25.4957C20.1803 24.2165 21.2208 23.1758 22.5001 23.1758Z" fill="black"/>
  <path d="M23.8755 22.4433C23.3346 22.4433 22.8947 22.0032 22.8947 21.4624C22.8947 20.9215 23.3346 20.4814 23.8755 20.4814C24.4164 20.4814 24.8565 20.9215 24.8565 21.4624C24.8565 22.0032 24.4164 22.4433 23.8755 22.4433Z" fill="black"/>
  <path d="M21.1246 20.4812C21.6654 20.4812 22.1054 20.9213 22.1054 21.4621C22.1054 22.003 21.6654 22.443 21.1246 22.443C20.5836 22.443 20.1435 22.003 20.1435 21.4621C20.1435 20.9213 20.5836 20.4812 21.1246 20.4812Z" fill="black"/>
  <path d="M25.8569 22.4937C26.3469 22.4937 26.7454 22.8922 26.7454 23.3821C26.7454 23.8721 26.3469 24.2707 25.8569 24.2707C25.367 24.2707 24.9684 23.8721 24.9684 23.3821C24.9684 22.8922 25.367 22.4937 25.8569 22.4937Z" fill="black"/>
  <path d="M19.1431 22.4937C19.6331 22.4937 20.0316 22.8922 20.0316 23.3821C20.0316 23.8721 19.6331 24.2707 19.1431 24.2707C18.6532 24.2707 18.2546 23.8721 18.2546 23.3821C18.2546 22.8922 18.6532 22.4937 19.1431 22.4937Z" fill="black"/>
  <path d="M28.2529 32.3423L28.4296 30.2612H16.4609L16.7372 32.4951L28.2529 32.3423Z" fill="white"/>
  <path d="M28.2529 15.9546L28.4296 18.0356H16.4609L16.7372 15.8018L28.2529 15.9546Z" fill="white"/>
  <defs>
    <filter id="filter0_d_1_2140" x="0" y="0.648438" width="55" height="55" filterUnits="userSpaceOnUse" color-interpolation-filters="sRGB">
      <feFlood flood-opacity="0" result="BackgroundImageFix"/>
      <feColorMatrix in="SourceAlpha" type="matrix" values="0 0 0 0 0 0 0 0 0 0 0 0 0 0 0 0 0 0 127 0" result="hardAlpha"/>
      <feOffset dx="5" dy="5"/>
      <feGaussianBlur stdDeviation="2.5"/>
      <feComposite in2="hardAlpha" operator="out"/>
      <feColorMatrix type="matrix" values="0 0 0 0 0.756863 0 0 0 0 0.756863 0 0 0 0 0.756863 0 0 0 0.160784 0"/>
      <feBlend mode="normal" in2="BackgroundImageFix" result="effect1_dropShadow_1_2140"/>
      <feBlend mode="normal" in="SourceGraphic" in2="effect1_dropShadow_1_2140" result="shape"/>
    </filter>
  </defs>
</svg>