<svg xmlns="http://www.w3.org/2000/svg" width="18.654" height="22.385" viewBox="0 0 18.654 22.385">
  <path id="location-1-svgrepo-com_10_" data-name="location-1-svgrepo-com (10)" d="M13.473,22.89c.159.117.308.223.443.318.145-.1.305-.206.479-.331a22.4,22.4,0,0,0,2.934-2.525c2.151-2.206,3.959-5.021,3.959-8.025a7.462,7.462,0,0,0-14.923,0c0,2.971,1.888,5.779,4.117,8.008A26.167,26.167,0,0,0,13.473,22.89ZM4.5,12.327c0,7.462,9.327,13.058,9.327,13.058.466,0,9.327-5.6,9.327-13.058a9.327,9.327,0,0,0-18.654,0Zm7.462,0a1.865,1.865,0,1,0,1.865-1.865A1.865,1.865,0,0,0,11.962,12.327Zm-1.865,0A3.731,3.731,0,1,0,13.827,8.6,3.731,3.731,0,0,0,10.1,12.327Z" transform="translate(-4.5 -3)" fill-rule="evenodd"/>
</svg>
