<svg xmlns="http://www.w3.org/2000/svg" width="55" height="56" viewBox="0 0 55 56" fill="none">
  <g filter="url(#filter0_d_1_2149)">
    <circle cx="22.5" cy="23.1484" r="22.5" fill="white"/>
  </g>
  <path d="M26.9132 25.0258H27.4166C27.695 25.0258 27.9208 25.2513 27.9208 25.5297V31.2686C27.9208 31.4939 27.979 31.6489 28.0189 31.7171H30.3542C30.3941 31.6489 30.4523 31.4939 30.4523 31.2686V25.5297C30.4523 25.2513 30.6779 25.0258 30.9566 25.0258H31.5162C31.7632 25.0258 31.9644 24.8245 31.9644 24.5773V19.7911C31.9644 19.5439 31.7632 19.3426 31.5162 19.3426H26.9134C26.7936 18.9755 26.5346 18.6752 26.1962 18.5004C26.3954 18.3985 26.6179 18.3347 26.8572 18.3347H27.0002C26.5658 17.8295 26.3016 17.1743 26.3016 16.4573C26.3016 14.8665 27.5959 13.5718 29.1864 13.5718C30.7775 13.5718 32.0717 14.8665 32.0717 16.4573C32.0717 17.1743 31.8074 17.8295 31.3731 18.3347H31.5162C32.3192 18.3347 32.9726 18.9881 32.9726 19.7911V24.5773C32.9726 25.3806 32.3192 26.0339 31.5162 26.0339H31.4605V31.2684C31.4605 32.0987 31.0229 32.7253 30.4429 32.7253H27.9308C27.3504 32.7253 26.9132 32.0987 26.9132 31.2684V26.0339H26.8575C26.6182 26.0339 26.3957 25.9706 26.1964 25.8679C26.5344 25.6932 26.7934 25.3926 26.9132 25.0258ZM29.1862 14.5799C28.1512 14.5799 27.3093 15.4223 27.3093 16.4576C27.3093 17.4931 28.1512 18.3349 29.1862 18.3349C30.2214 18.3349 31.0635 17.4931 31.0635 16.4576C31.0635 15.4221 30.2214 14.5799 29.1862 14.5799Z" fill="#010002" stroke="black" stroke-width="0.3"/>
  <path d="M13.4835 18.3347H13.6262C13.192 17.8295 12.9276 17.1743 12.9276 16.4573C12.9276 14.8665 14.2219 13.5718 15.8127 13.5718C17.4037 13.5718 18.6979 14.8665 18.6979 16.4573C18.6979 17.1743 18.4333 17.8295 17.9991 18.3347H18.1421C18.3948 18.3347 18.6295 18.4052 18.8369 18.5191C18.514 18.6961 18.268 18.9896 18.1523 19.3449C18.1485 19.3449 18.146 19.3426 18.1421 19.3426H13.4834C13.2362 19.3426 13.0349 19.5439 13.0349 19.7911V24.5773C13.0349 24.8245 13.2362 25.0258 13.4834 25.0258H14.0428C14.3213 25.0258 14.547 25.2513 14.547 25.5297V31.2686C14.547 31.4939 14.605 31.6489 14.6448 31.7171H16.9802C17.0203 31.6489 17.0783 31.4939 17.0783 31.2686V25.5297C17.0783 25.2513 17.3036 25.0258 17.5822 25.0258H18.1421C18.146 25.0258 18.1485 25.0238 18.1523 25.0235C18.268 25.379 18.514 25.672 18.8369 25.8493C18.6295 25.9629 18.395 26.0339 18.1421 26.0339H18.0865V31.2684C18.0865 32.0987 17.6492 32.7253 17.0688 32.7253H14.5568C13.9767 32.7253 13.5392 32.0987 13.5392 31.2684V26.0339H13.4834C12.6801 26.0339 12.027 25.3803 12.027 24.5773V19.7911C12.027 18.9878 12.6801 18.3347 13.4835 18.3347ZM15.8127 18.3347C16.8479 18.3347 17.6898 17.4928 17.6898 16.4573C17.6898 15.422 16.8479 14.5797 15.8127 14.5797C14.7777 14.5797 13.9353 15.422 13.9353 16.4573C13.9356 17.4928 14.7777 18.3347 15.8127 18.3347Z" fill="#010002" stroke="black" stroke-width="0.3"/>
  <path d="M18.7473 24.5772V19.7911C18.7473 19.6348 18.7787 19.4864 18.8244 19.3449C18.9398 18.9894 19.1861 18.6961 19.509 18.5191C19.7166 18.4054 19.9509 18.3347 20.2037 18.3347H20.3468C19.9126 17.8295 19.6481 17.1743 19.6481 16.4573C19.6481 14.8665 20.9424 13.5718 22.5334 13.5718C24.1242 13.5718 25.4184 14.8665 25.4184 16.4573C25.4184 17.1743 25.1541 17.8295 24.7199 18.3347H24.8629C25.1022 18.3347 25.325 18.3985 25.5242 18.5004C25.8627 18.6751 26.1217 18.9755 26.2414 19.3426C26.2879 19.4846 26.3196 19.6338 26.3196 19.7911V24.5773C26.3196 24.7349 26.2879 24.8838 26.2414 25.0258C26.1217 25.3925 25.8629 25.6932 25.5242 25.8679C25.325 25.9706 25.1023 26.0339 24.8629 26.0339H24.8072V31.2684C24.8072 32.0987 24.3699 32.7253 23.7896 32.7253H21.2773C20.6972 32.7253 20.2596 32.0987 20.2596 31.2684V26.0339H20.2039C19.951 26.0339 19.7166 25.9632 19.5092 25.8493C19.1863 25.672 18.9401 25.3788 18.8246 25.0235C18.7787 24.882 18.7473 24.7341 18.7473 24.5772ZM22.5334 14.5799C21.4982 14.5799 20.6561 15.4223 20.6561 16.4576C20.6561 17.4931 21.4979 18.3349 22.5334 18.3349C23.5684 18.3349 24.4105 17.4931 24.4105 16.4576C24.4103 15.4221 23.5684 14.5799 22.5334 14.5799ZM19.7557 24.5772C19.7557 24.8209 19.9513 25.0176 20.1935 25.0235C20.1973 25.0237 20.2001 25.0258 20.204 25.0258H20.7634C21.0418 25.0258 21.2679 25.2513 21.2679 25.5297V31.2686C21.2679 31.4939 21.3259 31.6489 21.3657 31.7171H23.701C23.7408 31.6489 23.7991 31.4939 23.7991 31.2686V25.5297C23.7991 25.2513 24.0246 25.0258 24.3031 25.0258H24.8067H24.8627C25.1099 25.0258 25.311 24.8245 25.311 24.5773V19.7911C25.311 19.5439 25.1099 19.3426 24.8627 19.3426H24.8067H20.204C20.2001 19.3426 20.1973 19.3449 20.1935 19.3449C19.9514 19.3513 19.7557 19.5474 19.7557 19.7911V24.5772Z" fill="#010002" stroke="black" stroke-width="0.3"/>
  <defs>
    <filter id="filter0_d_1_2149" x="0" y="0.648438" width="55" height="55" filterUnits="userSpaceOnUse" color-interpolation-filters="sRGB">
      <feFlood flood-opacity="0" result="BackgroundImageFix"/>
      <feColorMatrix in="SourceAlpha" type="matrix" values="0 0 0 0 0 0 0 0 0 0 0 0 0 0 0 0 0 0 127 0" result="hardAlpha"/>
      <feOffset dx="5" dy="5"/>
      <feGaussianBlur stdDeviation="2.5"/>
      <feComposite in2="hardAlpha" operator="out"/>
      <feColorMatrix type="matrix" values="0 0 0 0 0.756863 0 0 0 0 0.756863 0 0 0 0 0.756863 0 0 0 0.160784 0"/>
      <feBlend mode="normal" in2="BackgroundImageFix" result="effect1_dropShadow_1_2149"/>
      <feBlend mode="normal" in="SourceGraphic" in2="effect1_dropShadow_1_2149" result="shape"/>
    </filter>
  </defs>
</svg>