<svg xmlns="http://www.w3.org/2000/svg" width="17" height="18" viewBox="0 0 17 18" fill="none">
  <path d="M16.4869 17.4242C16.1099 17.8013 15.5234 17.8013 15.1463 17.4242L12.7583 15.0362C11.4177 16.0836 9.74193 16.712 7.89857 16.712C3.54155 16.712 0.00146484 13.1719 0.00146484 8.83575C0.00146484 4.49961 3.54155 0.959473 7.87763 0.959473C12.2137 0.959473 15.7538 4.49961 15.7538 8.83575C15.7538 10.6791 15.1254 12.3549 14.078 13.6956L16.466 16.0836C16.8431 16.4397 16.8431 17.0472 16.4869 17.4242ZM7.89857 2.9076C4.63081 2.9076 1.99145 5.54698 1.99145 8.8148C1.99145 12.0826 4.63081 14.722 7.89857 14.722C11.1663 14.722 13.8057 12.0826 13.8057 8.8148C13.8057 5.54698 11.1454 2.9076 7.89857 2.9076Z" fill="black"/>
</svg>