<svg xmlns="http://www.w3.org/2000/svg" width="55" height="56" viewBox="0 0 55 56" fill="none">
  <g filter="url(#filter0_d_1_2154)">
    <circle cx="22.5" cy="23.1484" r="22.5" fill="white"/>
  </g>
  <path fill-rule="evenodd" clip-rule="evenodd" d="M22.4998 19.5227C24.5025 19.5227 26.126 21.1462 26.126 23.149C26.126 25.1517 24.5025 26.7753 22.4998 26.7753C20.497 26.7753 18.8735 25.1517 18.8735 23.149C18.8735 21.1462 20.497 19.5227 22.4998 19.5227ZM24.3129 23.149C24.3129 22.1476 23.5011 21.3358 22.4998 21.3358C21.4984 21.3358 20.6866 22.1476 20.6866 23.149C20.6866 24.1504 21.4984 24.9621 22.4998 24.9621C23.5011 24.9621 24.3129 24.1504 24.3129 23.149Z" fill="black"/>
  <path fill-rule="evenodd" clip-rule="evenodd" d="M23.1466 12.7234C24.4166 12.7234 25.5405 13.6005 25.7893 14.8593L25.8609 15.2221C26.0311 16.0835 26.9766 16.6494 27.8985 16.3389L28.2583 16.2177C29.4602 15.8129 30.8053 16.2859 31.4584 17.3826L32.1051 18.4686C32.7644 19.5757 32.5136 20.9776 31.5301 21.802L31.2419 22.0435C30.5418 22.6303 30.5418 23.6676 31.2419 24.2544L31.5301 24.4959C32.5136 25.3203 32.7644 26.7222 32.1051 27.8292L31.4584 28.9153C30.8053 30.012 29.4601 30.4849 28.2582 30.0801L27.8985 29.9589C26.9767 29.6484 26.0311 30.2143 25.8609 31.0757L25.7892 31.4385C25.5405 32.6974 24.4166 33.5745 23.1466 33.5745H21.853C20.5829 33.5745 19.459 32.6974 19.2103 31.4384L19.1387 31.0758C18.9685 30.2144 18.0229 29.6484 17.1011 29.9589L16.7413 30.0801C15.5394 30.4849 14.1942 30.012 13.5411 28.9153L12.8944 27.8293C12.2351 26.7223 12.486 25.3203 13.4695 24.4959L13.7577 24.2544C14.4579 23.6677 14.4579 22.6302 13.7577 22.0435L13.4695 21.802C12.486 20.9776 12.2351 19.5757 12.8944 18.4686L13.5411 17.3825C14.1942 16.2859 15.5393 15.8129 16.7412 16.2177L17.1011 16.3389C18.0229 16.6494 18.9685 16.0834 19.1387 15.2221L19.2103 14.8594C19.459 13.6005 20.5829 12.7234 21.853 12.7234H23.1466ZM24.0105 15.2108C23.937 14.8387 23.5894 14.5365 23.1466 14.5365H21.853C21.4102 14.5365 21.0626 14.8387 20.9891 15.2108L20.9174 15.5735C20.5244 17.5628 18.4286 18.6992 16.5225 18.0572L16.1626 17.936C15.7465 17.7959 15.3023 17.9688 15.099 18.3103L14.4522 19.3963C14.2551 19.7274 14.322 20.1507 14.6342 20.4123L14.9223 20.6538C16.4871 21.9652 16.4871 24.3327 14.9223 25.6441L14.6342 25.8855C14.322 26.1472 14.2551 26.5704 14.4522 26.9016L15.099 27.9876C15.3023 28.3291 15.7465 28.502 16.1626 28.3618L16.5224 28.2406C18.4286 27.5986 20.5244 28.7351 20.9174 30.7244L20.9891 31.0871C21.0626 31.4591 21.4102 31.7614 21.853 31.7614H23.1466C23.5894 31.7614 23.937 31.4592 24.0105 31.0871L24.0822 30.7242C24.4752 28.735 26.5711 27.5986 28.4773 28.2407L28.837 28.3618C29.2531 28.502 29.6972 28.3291 29.9005 27.9876L30.5473 26.9015C30.7445 26.5704 30.6776 26.1472 30.3654 25.8855L30.0772 25.644C28.5125 24.3326 28.5125 21.9653 30.0772 20.6539L30.3654 20.4123C30.6776 20.1507 30.7445 19.7275 30.5473 19.3964L29.9005 18.3103C29.6972 17.9688 29.2531 17.7959 28.837 17.936L28.4772 18.0572C26.571 18.6992 24.4753 17.5628 24.0822 15.5736L24.0105 15.2108Z" fill="black"/>
  <defs>
    <filter id="filter0_d_1_2154" x="0" y="0.648438" width="55" height="55" filterUnits="userSpaceOnUse" color-interpolation-filters="sRGB">
      <feFlood flood-opacity="0" result="BackgroundImageFix"/>
      <feColorMatrix in="SourceAlpha" type="matrix" values="0 0 0 0 0 0 0 0 0 0 0 0 0 0 0 0 0 0 127 0" result="hardAlpha"/>
      <feOffset dx="5" dy="5"/>
      <feGaussianBlur stdDeviation="2.5"/>
      <feComposite in2="hardAlpha" operator="out"/>
      <feColorMatrix type="matrix" values="0 0 0 0 0.756863 0 0 0 0 0.756863 0 0 0 0 0.756863 0 0 0 0.160784 0"/>
      <feBlend mode="normal" in2="BackgroundImageFix" result="effect1_dropShadow_1_2154"/>
      <feBlend mode="normal" in="SourceGraphic" in2="effect1_dropShadow_1_2154" result="shape"/>
    </filter>
  </defs>
</svg>