<svg xmlns="http://www.w3.org/2000/svg" width="55" height="56" viewBox="0 0 55 56" fill="none">
  <g filter="url(#filter0_d_1_2151)">
    <circle cx="22.5" cy="23.1484" r="22.5" fill="white"/>
  </g>
  <path d="M22.5 14.1191L20.3446 19.5842C20.1456 20.0887 20.0462 20.3409 19.8938 20.5536C19.7588 20.7422 19.5938 20.9072 19.4052 21.0423C19.1925 21.1946 18.9403 21.2941 18.4358 21.493L12.9707 23.6484L18.4358 25.8039C18.9403 26.0028 19.1925 26.1022 19.4052 26.2546C19.5938 26.3896 19.7588 26.5547 19.8938 26.7432C20.0462 26.9559 20.1456 27.2082 20.3446 27.7127L22.5 33.1777L24.6554 27.7127C24.8544 27.2082 24.9538 26.9559 25.1062 26.7432C25.2412 26.5547 25.4063 26.3896 25.5948 26.2546C25.8075 26.1022 26.0597 26.0028 26.5642 25.8039L32.0293 23.6484L26.5642 21.493C26.0597 21.2941 25.8075 21.1946 25.5948 21.0423C25.4063 20.9072 25.2412 20.7422 25.1062 20.5536C24.9538 20.3409 24.8544 20.0887 24.6554 19.5842L22.5 14.1191Z" stroke="black" stroke-width="2" stroke-linecap="round" stroke-linejoin="round"/>
  <defs>
    <filter id="filter0_d_1_2151" x="0" y="0.648438" width="55" height="55" filterUnits="userSpaceOnUse" color-interpolation-filters="sRGB">
      <feFlood flood-opacity="0" result="BackgroundImageFix"/>
      <feColorMatrix in="SourceAlpha" type="matrix" values="0 0 0 0 0 0 0 0 0 0 0 0 0 0 0 0 0 0 127 0" result="hardAlpha"/>
      <feOffset dx="5" dy="5"/>
      <feGaussianBlur stdDeviation="2.5"/>
      <feComposite in2="hardAlpha" operator="out"/>
      <feColorMatrix type="matrix" values="0 0 0 0 0.756863 0 0 0 0 0.756863 0 0 0 0 0.756863 0 0 0 0.160784 0"/>
      <feBlend mode="normal" in2="BackgroundImageFix" result="effect1_dropShadow_1_2151"/>
      <feBlend mode="normal" in="SourceGraphic" in2="effect1_dropShadow_1_2151" result="shape"/>
    </filter>
  </defs>
</svg>