<svg xmlns="http://www.w3.org/2000/svg" width="55" height="56" viewBox="0 0 55 56" fill="none">
  <g filter="url(#filter0_d_1_2157)">
    <circle cx="22.5" cy="23.1484" r="22.5" fill="white"/>
  </g>
  <path d="M22 32.2935C17.2255 32.2935 13.355 28.4229 13.355 23.6484C13.355 18.8739 17.2255 15.0034 22 15.0034C26.7745 15.0034 30.645 18.8739 30.645 23.6484C30.645 25.0314 30.3203 26.3384 29.7429 27.4976C29.5895 27.8057 29.5384 28.1578 29.6274 28.4902L30.1423 30.4146C30.3658 31.25 29.6016 32.0142 28.7662 31.7908L26.8417 31.2759C26.5093 31.1869 26.1572 31.238 25.8492 31.3913C24.69 31.9688 23.3829 32.2935 22 32.2935Z" stroke="black" stroke-width="2"/>
  <path d="M25.458 23.6484H25.4502M22.0078 23.6484H22M18.5498 23.6484H18.542" stroke="black" stroke-width="2" stroke-linecap="round" stroke-linejoin="round"/>
  <defs>
    <filter id="filter0_d_1_2157" x="0" y="0.648438" width="55" height="55" filterUnits="userSpaceOnUse" color-interpolation-filters="sRGB">
      <feFlood flood-opacity="0" result="BackgroundImageFix"/>
      <feColorMatrix in="SourceAlpha" type="matrix" values="0 0 0 0 0 0 0 0 0 0 0 0 0 0 0 0 0 0 127 0" result="hardAlpha"/>
      <feOffset dx="5" dy="5"/>
      <feGaussianBlur stdDeviation="2.5"/>
      <feComposite in2="hardAlpha" operator="out"/>
      <feColorMatrix type="matrix" values="0 0 0 0 0.756863 0 0 0 0 0.756863 0 0 0 0 0.756863 0 0 0 0.160784 0"/>
      <feBlend mode="normal" in2="BackgroundImageFix" result="effect1_dropShadow_1_2157"/>
      <feBlend mode="normal" in="SourceGraphic" in2="effect1_dropShadow_1_2157" result="shape"/>
    </filter>
  </defs>
</svg>